<svg width="45" height="12" viewBox="0 0 45 12" fill="none" xmlns="http://www.w3.org/2000/svg">
<path d="M-0.000468731 11.52L4.12753 0.320019H5.55153L9.66353 11.52H8.23953L4.83153 2.00002L1.40753 11.52H-0.000468731ZM1.88753 8.64002L2.27153 7.55202H7.34353L7.72753 8.64002H1.88753ZM15.4885 11.712C15.0299 11.712 14.6139 11.648 14.2405 11.52C13.8779 11.392 13.5579 11.216 13.2805 10.992C13.0032 10.7574 12.7739 10.4907 12.5925 10.192L12.4645 11.52H11.2485V1.90735e-05H12.5925V4.80002C12.8485 4.39469 13.2165 4.04269 13.6965 3.74402C14.1765 3.44535 14.7739 3.29602 15.4885 3.29602C16.2779 3.29602 16.9605 3.47735 17.5365 3.84002C18.1232 4.20269 18.5765 4.70402 18.8965 5.34402C19.2272 5.97335 19.3925 6.69335 19.3925 7.50402C19.3925 8.31469 19.2272 9.04002 18.8965 9.68002C18.5765 10.3094 18.1232 10.8054 17.5365 11.168C16.9499 11.5307 16.2672 11.712 15.4885 11.712ZM15.3285 10.544C15.8619 10.544 16.3312 10.4214 16.7365 10.176C17.1419 9.92002 17.4565 9.56269 17.6805 9.10402C17.9152 8.64535 18.0325 8.11202 18.0325 7.50402C18.0325 6.89602 17.9152 6.36269 17.6805 5.90402C17.4565 5.44535 17.1419 5.09335 16.7365 4.84802C16.3312 4.59202 15.8619 4.46402 15.3285 4.46402C14.7952 4.46402 14.3259 4.59202 13.9205 4.84802C13.5152 5.09335 13.2005 5.44535 12.9765 5.90402C12.7525 6.36269 12.6405 6.89602 12.6405 7.50402C12.6405 8.11202 12.7525 8.64535 12.9765 9.10402C13.2005 9.56269 13.5152 9.92002 13.9205 10.176C14.3259 10.4214 14.7952 10.544 15.3285 10.544ZM24.8958 11.712C24.1491 11.712 23.4771 11.5414 22.8798 11.2C22.2824 10.848 21.8078 10.3574 21.4558 9.72802C21.1144 9.09869 20.9438 8.35735 20.9438 7.50402C20.9438 6.65069 21.1198 5.90935 21.4718 5.28002C21.8238 4.65069 22.2984 4.16535 22.8958 3.82402C23.5038 3.47202 24.1811 3.29602 24.9278 3.29602C25.6851 3.29602 26.3624 3.47202 26.9598 3.82402C27.5571 4.16535 28.0264 4.65069 28.3678 5.28002C28.7091 5.90935 28.8798 6.65069 28.8798 7.50402C28.8798 8.35735 28.7038 9.09869 28.3518 9.72802C28.0104 10.3574 27.5358 10.848 26.9278 11.2C26.3304 11.5414 25.6531 11.712 24.8958 11.712ZM24.8958 10.56C25.3651 10.56 25.7971 10.448 26.1918 10.224C26.5864 9.98935 26.9011 9.64802 27.1358 9.20002C27.3811 8.74135 27.5038 8.17602 27.5038 7.50402C27.5038 6.82135 27.3864 6.25602 27.1518 5.80802C26.9171 5.36002 26.6024 5.02402 26.2078 4.80002C25.8131 4.56535 25.3864 4.44802 24.9278 4.44802C24.4798 4.44802 24.0531 4.56535 23.6478 4.80002C23.2531 5.02402 22.9331 5.36002 22.6878 5.80802C22.4424 6.25602 22.3198 6.82135 22.3198 7.50402C22.3198 8.17602 22.4424 8.74135 22.6878 9.20002C22.9331 9.64802 23.2478 9.98935 23.6318 10.224C24.0264 10.448 24.4478 10.56 24.8958 10.56ZM33.6922 11.712C33.0735 11.712 32.5295 11.5894 32.0602 11.344C31.6015 11.0987 31.2442 10.72 30.9882 10.208C30.7428 9.69602 30.6202 9.05069 30.6202 8.27202V3.48802H31.9642V8.12802C31.9642 8.93869 32.1402 9.54669 32.4922 9.95202C32.8442 10.3574 33.3455 10.56 33.9962 10.56C34.4442 10.56 34.8495 10.4534 35.2122 10.24C35.5748 10.016 35.8575 9.69602 36.0602 9.28002C36.2735 8.86402 36.3802 8.35735 36.3802 7.76002V3.48802H37.7242V11.52H36.5082L36.4282 10.112C36.1722 10.6134 35.8042 11.008 35.3242 11.296C34.8442 11.5734 34.3002 11.712 33.6922 11.712ZM43.104 11.52C42.624 11.52 42.208 11.4454 41.856 11.296C41.504 11.1467 41.232 10.896 41.04 10.544C40.8587 10.1814 40.768 9.69602 40.768 9.08802V4.62402H39.376V3.48802H40.768L40.944 1.55202H42.112V3.48802H44.464V4.62402H42.112V9.08802C42.112 9.58935 42.2134 9.93069 42.416 10.112C42.6187 10.2827 42.976 10.368 43.488 10.368H44.352V11.52H43.104Z" fill="#161616"/>
</svg>
