<svg width="59" height="12" viewBox="0 0 59 12" fill="none" xmlns="http://www.w3.org/2000/svg">
<path d="M5.31205 11.584C4.22405 11.584 3.28005 11.344 2.48005 10.864C1.69071 10.3733 1.07738 9.69597 0.640047 8.83197C0.21338 7.9573 4.69089e-05 6.94397 4.69089e-05 5.79197C4.69089e-05 4.63997 0.21338 3.63197 0.640047 2.76797C1.07738 1.8933 1.69071 1.21597 2.48005 0.735968C3.28005 0.245301 4.22405 -3.24249e-05 5.31205 -3.24249e-05C6.60271 -3.24249e-05 7.64271 0.303967 8.43205 0.911967C9.23205 1.51997 9.74405 2.37863 9.96805 3.48797H8.49605C8.32538 2.79463 7.97871 2.23997 7.45605 1.82397C6.93338 1.3973 6.21871 1.18397 5.31205 1.18397C4.52271 1.18397 3.82938 1.37063 3.23205 1.74397C2.64538 2.10663 2.18671 2.63463 1.85605 3.32797C1.53605 4.01063 1.37605 4.83197 1.37605 5.79197C1.37605 6.75197 1.53605 7.57863 1.85605 8.27197C2.18671 8.95463 2.64538 9.48263 3.23205 9.85597C3.82938 10.2186 4.52271 10.4 5.31205 10.4C6.21871 10.4 6.93338 10.1973 7.45605 9.79197C7.97871 9.37597 8.32538 8.82663 8.49605 8.14397H9.96805C9.74405 9.2213 9.23205 10.064 8.43205 10.672C7.64271 11.28 6.60271 11.584 5.31205 11.584ZM15.4524 11.584C14.7058 11.584 14.0338 11.4133 13.4364 11.072C12.8391 10.72 12.3644 10.2293 12.0124 9.59997C11.6711 8.97063 11.5004 8.2293 11.5004 7.37597C11.5004 6.52263 11.6764 5.7813 12.0284 5.15197C12.3804 4.52263 12.8551 4.0373 13.4524 3.69597C14.0604 3.34397 14.7378 3.16797 15.4844 3.16797C16.2418 3.16797 16.9191 3.34397 17.5164 3.69597C18.1138 4.0373 18.5831 4.52263 18.9244 5.15197C19.2658 5.7813 19.4364 6.52263 19.4364 7.37597C19.4364 8.2293 19.2604 8.97063 18.9084 9.59997C18.5671 10.2293 18.0924 10.72 17.4844 11.072C16.8871 11.4133 16.2098 11.584 15.4524 11.584ZM15.4524 10.432C15.9218 10.432 16.3538 10.32 16.7484 10.096C17.1431 9.8613 17.4578 9.51997 17.6924 9.07197C17.9378 8.6133 18.0604 8.04797 18.0604 7.37597C18.0604 6.6933 17.9431 6.12797 17.7084 5.67997C17.4738 5.23197 17.1591 4.89597 16.7644 4.67197C16.3698 4.4373 15.9431 4.31997 15.4844 4.31997C15.0364 4.31997 14.6098 4.4373 14.2044 4.67197C13.8098 4.89597 13.4898 5.23197 13.2444 5.67997C12.9991 6.12797 12.8764 6.6933 12.8764 7.37597C12.8764 8.04797 12.9991 8.6133 13.2444 9.07197C13.4898 9.51997 13.8044 9.8613 14.1884 10.096C14.5831 10.32 15.0044 10.432 15.4524 10.432ZM21.3208 11.392V3.35997H22.5368L22.6168 4.76797C22.8728 4.26663 23.2355 3.8773 23.7048 3.59997C24.1848 3.31197 24.7288 3.16797 25.3368 3.16797C25.9661 3.16797 26.5101 3.29063 26.9688 3.53597C27.4275 3.7813 27.7848 4.15997 28.0408 4.67197C28.2968 5.18397 28.4248 5.8293 28.4248 6.60797V11.392H27.0808V6.75197C27.0808 5.9413 26.9048 5.3333 26.5528 4.92797C26.2008 4.52263 25.6941 4.31997 25.0328 4.31997C24.5848 4.31997 24.1795 4.43197 23.8168 4.65597C23.4648 4.8693 23.1821 5.18397 22.9688 5.59997C22.7661 6.01597 22.6648 6.52263 22.6648 7.11997V11.392H21.3208ZM33.6607 11.392C33.1807 11.392 32.7647 11.3173 32.4127 11.168C32.0607 11.0186 31.7887 10.768 31.5967 10.416C31.4153 10.0533 31.3247 9.56797 31.3247 8.95997V4.49597H29.9327V3.35997H31.3247L31.5007 1.42397H32.6687V3.35997H35.0207V4.49597H32.6687V8.95997C32.6687 9.4613 32.77 9.80263 32.9727 9.98397C33.1753 10.1546 33.5327 10.24 34.0447 10.24H34.9087V11.392H33.6607ZM39.3827 11.584C38.732 11.584 38.188 11.472 37.7507 11.248C37.3133 11.0133 36.988 10.7093 36.7747 10.336C36.5613 9.95197 36.4547 9.5413 36.4547 9.10397C36.4547 8.55997 36.5933 8.1013 36.8707 7.72797C37.1587 7.34397 37.5587 7.05597 38.0707 6.86397C38.5933 6.6613 39.2013 6.55997 39.8947 6.55997H42.0387C42.0387 6.05863 41.9587 5.64263 41.7987 5.31197C41.6493 4.9813 41.4253 4.73063 41.1267 4.55997C40.828 4.3893 40.4653 4.30397 40.0387 4.30397C39.5267 4.30397 39.084 4.43197 38.7107 4.68797C38.3373 4.94397 38.108 5.32263 38.0227 5.82397H36.6467C36.7107 5.24797 36.9027 4.76797 37.2227 4.38397C37.5533 3.9893 37.9693 3.69063 38.4707 3.48797C38.972 3.27463 39.4947 3.16797 40.0387 3.16797C40.7853 3.16797 41.404 3.30663 41.8947 3.58397C42.3853 3.85063 42.7533 4.2293 42.9987 4.71997C43.2547 5.19997 43.3827 5.7653 43.3827 6.41597V11.392H42.1827L42.1027 9.96797C41.996 10.192 41.8573 10.4053 41.6867 10.608C41.5267 10.8 41.3347 10.9706 41.1107 11.12C40.8973 11.2586 40.6467 11.3706 40.3587 11.456C40.0707 11.5413 39.7453 11.584 39.3827 11.584ZM39.5907 10.448C39.964 10.448 40.3 10.3733 40.5987 10.224C40.908 10.064 41.1693 9.85063 41.3827 9.58397C41.596 9.3173 41.756 9.01863 41.8627 8.68797C41.98 8.34663 42.0387 7.99997 42.0387 7.64797V7.59997H40.0067C39.4947 7.59997 39.0787 7.66397 38.7587 7.79197C38.4387 7.9093 38.2093 8.07997 38.0707 8.30397C37.932 8.5173 37.8627 8.76263 37.8627 9.03997C37.8627 9.32797 37.9267 9.57863 38.0547 9.79197C38.1933 9.99463 38.3907 10.1546 38.6467 10.272C38.9027 10.3893 39.2173 10.448 39.5907 10.448ZM49.0938 11.584C48.3365 11.584 47.6538 11.408 47.0458 11.056C46.4485 10.704 45.9738 10.2133 45.6218 9.58397C45.2805 8.95463 45.1098 8.21863 45.1098 7.37597C45.1098 6.5333 45.2805 5.7973 45.6218 5.16797C45.9738 4.53863 46.4485 4.04797 47.0458 3.69597C47.6538 3.34397 48.3365 3.16797 49.0938 3.16797C50.0538 3.16797 50.8538 3.41863 51.4938 3.91997C52.1338 4.41063 52.5391 5.07197 52.7098 5.90397H51.3338C51.2271 5.40263 50.9658 5.0133 50.5498 4.73597C50.1338 4.45863 49.6431 4.31997 49.0778 4.31997C48.6191 4.31997 48.1925 4.4373 47.7978 4.67197C47.4138 4.89597 47.0991 5.2373 46.8538 5.69597C46.6085 6.14397 46.4858 6.70397 46.4858 7.37597C46.4858 7.8773 46.5551 8.31997 46.6938 8.70397C46.8431 9.08797 47.0351 9.4133 47.2698 9.67997C47.5045 9.93597 47.7765 10.128 48.0858 10.256C48.4058 10.384 48.7365 10.448 49.0778 10.448C49.4618 10.448 49.8085 10.3893 50.1178 10.272C50.4271 10.144 50.6885 9.96263 50.9018 9.72797C51.1151 9.48263 51.2591 9.1893 51.3338 8.84797H52.7098C52.5391 9.6693 52.1285 10.3306 51.4778 10.832C50.8378 11.3333 50.0431 11.584 49.0938 11.584ZM57.5357 11.392C57.0557 11.392 56.6397 11.3173 56.2877 11.168C55.9357 11.0186 55.6637 10.768 55.4717 10.416C55.2903 10.0533 55.1997 9.56797 55.1997 8.95997V4.49597H53.8077V3.35997H55.1997L55.3757 1.42397H56.5437V3.35997H58.8957V4.49597H56.5437V8.95997C56.5437 9.4613 56.645 9.80263 56.8477 9.98397C57.0503 10.1546 57.4077 10.24 57.9197 10.24H58.7837V11.392H57.5357Z" fill="#161616"/>
</svg>
