<svg width="222" height="90" viewBox="0 0 222 90" fill="none" xmlns="http://www.w3.org/2000/svg">
<rect x="0.75" y="0.75" width="220.5" height="88.5" stroke="#D9DCE5" stroke-width="1.5"/>
<path d="M64.668 69.1484V57.9484H68.14C69.4413 57.9484 70.5187 58.1778 71.372 58.6364C72.2253 59.0951 72.8547 59.7458 73.26 60.5884C73.676 61.4204 73.884 62.4124 73.884 63.5644C73.884 64.7164 73.676 65.7084 73.26 66.5404C72.8547 67.3724 72.2253 68.0178 71.372 68.4764C70.5187 68.9244 69.4413 69.1484 68.14 69.1484H64.668ZM66.268 67.8044H68.076C69.1107 67.8044 69.932 67.6338 70.54 67.2924C71.148 66.9511 71.58 66.4658 71.836 65.8364C72.1027 65.1964 72.236 64.4391 72.236 63.5644C72.236 62.6791 72.1027 61.9164 71.836 61.2764C71.58 60.6364 71.148 60.1458 70.54 59.8044C69.932 59.4631 69.1107 59.2924 68.076 59.2924H66.268V67.8044ZM75.825 69.1484V61.1164H77.425V69.1484H75.825ZM76.625 59.5804C76.3263 59.5804 76.0757 59.4844 75.873 59.2924C75.681 59.1004 75.585 58.8551 75.585 58.5564C75.585 58.2684 75.681 58.0338 75.873 57.8524C76.0757 57.6604 76.3263 57.5644 76.625 57.5644C76.9343 57.5644 77.1903 57.6604 77.393 57.8524C77.5957 58.0338 77.697 58.2684 77.697 58.5564C77.697 58.8551 77.5957 59.1004 77.393 59.2924C77.1903 59.4844 76.9343 59.5804 76.625 59.5804ZM79.713 69.1484V61.1164H81.153L81.249 62.4924C81.505 62.0124 81.8677 61.6338 82.337 61.3564C82.8063 61.0684 83.3503 60.9244 83.969 60.9244C84.5983 60.9244 85.1423 61.0524 85.601 61.3084C86.0597 61.5644 86.417 61.9538 86.673 62.4764C86.929 62.9884 87.057 63.6338 87.057 64.4124V69.1484H85.457V64.5724C85.457 63.8258 85.2917 63.2604 84.961 62.8764C84.6303 62.4818 84.1557 62.2844 83.537 62.2844C83.1103 62.2844 82.7263 62.3858 82.385 62.5884C82.0543 62.7911 81.793 63.0844 81.601 63.4684C81.409 63.8524 81.313 64.3271 81.313 64.8924V69.1484H79.713ZM89.2156 69.1484V61.1164H90.8156V69.1484H89.2156ZM90.0156 59.5804C89.717 59.5804 89.4663 59.4844 89.2636 59.2924C89.0716 59.1004 88.9756 58.8551 88.9756 58.5564C88.9756 58.2684 89.0716 58.0338 89.2636 57.8524C89.4663 57.6604 89.717 57.5644 90.0156 57.5644C90.325 57.5644 90.581 57.6604 90.7836 57.8524C90.9863 58.0338 91.0876 58.2684 91.0876 58.5564C91.0876 58.8551 90.9863 59.1004 90.7836 59.2924C90.581 59.4844 90.325 59.5804 90.0156 59.5804ZM93.1036 69.1484V61.1164H94.5436L94.6396 62.4924C94.8956 62.0124 95.2583 61.6338 95.7276 61.3564C96.197 61.0684 96.741 60.9244 97.3596 60.9244C97.989 60.9244 98.533 61.0524 98.9916 61.3084C99.4503 61.5644 99.8076 61.9538 100.064 62.4764C100.32 62.9884 100.448 63.6338 100.448 64.4124V69.1484H98.8476V64.5724C98.8476 63.8258 98.6823 63.2604 98.3516 62.8764C98.021 62.4818 97.5463 62.2844 96.9276 62.2844C96.501 62.2844 96.117 62.3858 95.7756 62.5884C95.445 62.7911 95.1836 63.0844 94.9916 63.4684C94.7996 63.8524 94.7036 64.3271 94.7036 64.8924V69.1484H93.1036ZM105.774 72.8604C105.038 72.8604 104.388 72.7644 103.822 72.5724C103.257 72.3911 102.82 72.1084 102.51 71.7244C102.201 71.3404 102.046 70.8711 102.046 70.3164C102.046 70.0284 102.11 69.7351 102.238 69.4364C102.366 69.1484 102.574 68.8711 102.862 68.6044C103.15 68.3378 103.54 68.1031 104.03 67.9004L104.91 68.6044C104.377 68.8178 104.014 69.0631 103.822 69.3404C103.641 69.6178 103.55 69.8898 103.55 70.1564C103.55 70.4764 103.646 70.7431 103.838 70.9564C104.03 71.1698 104.292 71.3298 104.622 71.4364C104.964 71.5431 105.342 71.5964 105.758 71.5964C106.185 71.5964 106.548 71.5378 106.846 71.4204C107.156 71.3031 107.396 71.1378 107.566 70.9244C107.737 70.7111 107.822 70.4604 107.822 70.1724C107.822 69.8311 107.694 69.5431 107.438 69.3084C107.182 69.0844 106.697 68.9511 105.982 68.9084C105.374 68.8658 104.857 68.8071 104.43 68.7324C104.014 68.6578 103.657 68.5671 103.358 68.4604C103.07 68.3538 102.825 68.2364 102.622 68.1084C102.43 67.9804 102.265 67.8471 102.126 67.7084V67.3404L103.726 65.6924L105.006 66.1404L103.278 67.7564L103.614 67.0364C103.732 67.1218 103.844 67.1964 103.95 67.2604C104.057 67.3244 104.201 67.3831 104.382 67.4364C104.564 67.4898 104.809 67.5378 105.118 67.5804C105.428 67.6231 105.833 67.6658 106.334 67.7084C107.049 67.7618 107.625 67.8898 108.062 68.0924C108.51 68.2951 108.836 68.5671 109.038 68.9084C109.241 69.2498 109.342 69.6551 109.342 70.1244C109.342 70.5831 109.214 71.0204 108.958 71.4364C108.713 71.8524 108.324 72.1938 107.79 72.4604C107.268 72.7271 106.596 72.8604 105.774 72.8604ZM105.758 66.6684C105.086 66.6684 104.51 66.5404 104.03 66.2844C103.561 66.0284 103.198 65.6871 102.942 65.2604C102.697 64.8231 102.574 64.3378 102.574 63.8044C102.574 63.2711 102.697 62.7911 102.942 62.3644C103.198 61.9271 103.561 61.5804 104.03 61.3244C104.51 61.0578 105.086 60.9244 105.758 60.9244C106.441 60.9244 107.017 61.0578 107.486 61.3244C107.966 61.5804 108.329 61.9271 108.574 62.3644C108.82 62.7911 108.942 63.2711 108.942 63.8044C108.942 64.3378 108.82 64.8231 108.574 65.2604C108.329 65.6871 107.966 66.0284 107.486 66.2844C107.017 66.5404 106.441 66.6684 105.758 66.6684ZM105.758 65.4044C106.281 65.4044 106.697 65.2711 107.006 65.0044C107.316 64.7271 107.47 64.3271 107.47 63.8044C107.47 63.2924 107.316 62.9031 107.006 62.6364C106.697 62.3591 106.281 62.2204 105.758 62.2204C105.246 62.2204 104.83 62.3591 104.51 62.6364C104.19 62.9031 104.03 63.2924 104.03 63.8044C104.03 64.3271 104.185 64.7271 104.494 65.0044C104.814 65.2711 105.236 65.4044 105.758 65.4044ZM107.07 62.3804L106.686 61.1164H109.998V62.2044L107.07 62.3804ZM115.777 69.1484V57.9484H119.569C120.455 57.9484 121.18 58.0978 121.745 58.3964C122.311 58.6951 122.727 59.0951 122.993 59.5964C123.271 60.0871 123.409 60.6471 123.409 61.2764C123.409 61.8738 123.271 62.4284 122.993 62.9404C122.716 63.4418 122.289 63.8471 121.713 64.1564C121.148 64.4551 120.417 64.6044 119.521 64.6044H117.377V69.1484H115.777ZM121.649 69.1484L119.249 64.1724H121.009L123.521 69.1484H121.649ZM117.377 63.3884H119.457C120.247 63.3884 120.828 63.1964 121.201 62.8124C121.575 62.4178 121.761 61.9164 121.761 61.3084C121.761 60.6898 121.58 60.1991 121.217 59.8364C120.855 59.4738 120.263 59.2924 119.441 59.2924H117.377V63.3884ZM128.581 69.3404C127.823 69.3404 127.141 69.1698 126.533 68.8284C125.935 68.4764 125.461 67.9858 125.109 67.3564C124.767 66.7164 124.597 65.9751 124.597 65.1324C124.597 64.2898 124.773 63.5538 125.125 62.9244C125.477 62.2844 125.957 61.7938 126.565 61.4524C127.173 61.1004 127.85 60.9244 128.597 60.9244C129.365 60.9244 130.047 61.1004 130.645 61.4524C131.253 61.7938 131.727 62.2791 132.069 62.9084C132.421 63.5378 132.597 64.2791 132.597 65.1324C132.597 65.9751 132.421 66.7164 132.069 67.3564C131.717 67.9858 131.237 68.4764 130.629 68.8284C130.031 69.1698 129.349 69.3404 128.581 69.3404ZM128.581 67.9644C129.018 67.9644 129.413 67.8631 129.765 67.6604C130.127 67.4471 130.415 67.1271 130.629 66.7004C130.853 66.2738 130.965 65.7511 130.965 65.1324C130.965 64.5031 130.858 63.9804 130.645 63.5644C130.431 63.1378 130.143 62.8231 129.781 62.6204C129.429 62.4071 129.039 62.3004 128.613 62.3004C128.197 62.3004 127.802 62.4071 127.429 62.6204C127.066 62.8231 126.773 63.1378 126.549 63.5644C126.335 63.9804 126.229 64.5031 126.229 65.1324C126.229 65.7511 126.335 66.2738 126.549 66.7004C126.773 67.1271 127.061 67.4471 127.413 67.6604C127.775 67.8631 128.165 67.9644 128.581 67.9644ZM138.143 69.3404C137.386 69.3404 136.703 69.1698 136.095 68.8284C135.498 68.4764 135.023 67.9858 134.671 67.3564C134.33 66.7164 134.159 65.9751 134.159 65.1324C134.159 64.2898 134.335 63.5538 134.687 62.9244C135.039 62.2844 135.519 61.7938 136.127 61.4524C136.735 61.1004 137.412 60.9244 138.159 60.9244C138.927 60.9244 139.61 61.1004 140.207 61.4524C140.815 61.7938 141.29 62.2791 141.631 62.9084C141.983 63.5378 142.159 64.2791 142.159 65.1324C142.159 65.9751 141.983 66.7164 141.631 67.3564C141.279 67.9858 140.799 68.4764 140.191 68.8284C139.594 69.1698 138.911 69.3404 138.143 69.3404ZM138.143 67.9644C138.58 67.9644 138.975 67.8631 139.327 67.6604C139.69 67.4471 139.978 67.1271 140.191 66.7004C140.415 66.2738 140.527 65.7511 140.527 65.1324C140.527 64.5031 140.42 63.9804 140.207 63.5644C139.994 63.1378 139.706 62.8231 139.343 62.6204C138.991 62.4071 138.602 62.3004 138.175 62.3004C137.759 62.3004 137.364 62.4071 136.991 62.6204C136.628 62.8231 136.335 63.1378 136.111 63.5644C135.898 63.9804 135.791 64.5031 135.791 65.1324C135.791 65.7511 135.898 66.2738 136.111 66.7004C136.335 67.1271 136.623 67.4471 136.975 67.6604C137.338 67.8631 137.727 67.9644 138.143 67.9644ZM144.026 69.1484V61.1164H145.466L145.578 62.2364C145.834 61.8311 146.175 61.5111 146.602 61.2764C147.028 61.0418 147.508 60.9244 148.042 60.9244C148.447 60.9244 148.815 60.9778 149.146 61.0844C149.487 61.1911 149.786 61.3564 150.042 61.5804C150.298 61.8044 150.506 62.0871 150.666 62.4284C150.943 61.9484 151.322 61.5804 151.802 61.3244C152.292 61.0578 152.815 60.9244 153.37 60.9244C154.02 60.9244 154.58 61.0524 155.05 61.3084C155.519 61.5644 155.876 61.9538 156.122 62.4764C156.367 62.9991 156.49 63.6498 156.49 64.4284V69.1484H154.906V64.5884C154.906 63.8311 154.751 63.2604 154.442 62.8764C154.143 62.4818 153.7 62.2844 153.114 62.2844C152.719 62.2844 152.367 62.3858 152.058 62.5884C151.748 62.7911 151.503 63.0898 151.322 63.4844C151.151 63.8684 151.066 64.3378 151.066 64.8924V69.1484H149.466V64.5884C149.466 63.8311 149.311 63.2604 149.002 62.8764C148.692 62.4818 148.25 62.2844 147.674 62.2844C147.29 62.2844 146.943 62.3858 146.634 62.5884C146.324 62.7911 146.079 63.0898 145.898 63.4844C145.716 63.8684 145.626 64.3378 145.626 64.8924V69.1484H144.026Z" fill="#808080"/>
<g clip-path="url(#clip0_413_489)">
<path d="M118.622 25.6411C118.902 25.6411 119.13 25.4134 119.13 25.1325V23.501C119.13 23.2201 118.902 22.9924 118.622 22.9924L117.898 22.9968L115.522 25.6411H118.622Z" fill="#666666"/>
<path d="M103.377 25.6409H106.5L104.084 22.9923H103.377C103.096 22.9923 102.868 23.22 102.868 23.5009V25.1322C102.868 25.4132 103.096 25.6409 103.377 25.6409V25.6409Z" fill="#666666"/>
<path d="M111.291 28.2636L116.004 22.9924H105.994L110.785 28.2657C110.921 28.4151 111.156 28.4142 111.291 28.2636Z" fill="#666666"/>
<path d="M112.617 35.6816H111.742V29.763C111.532 29.8843 111.291 29.9505 111.044 29.9515C111.042 29.9515 111.04 29.9515 111.038 29.9515C110.789 29.9515 110.547 29.8852 110.335 29.7629V35.6816H109.38C108.992 35.6816 108.677 35.9965 108.677 36.3848C108.677 36.7731 108.992 37.088 109.38 37.088H112.617C113.005 37.088 113.32 36.7731 113.32 36.3848C113.32 35.9965 113.005 35.6816 112.617 35.6816Z" fill="#666666"/>
<path d="M104.93 27.5973H100.406V19.2621C100.406 18.8738 100.092 18.559 99.7032 18.559C99.3148 18.559 99 18.8738 99 19.2621V36.441C99 36.8294 99.3148 37.1442 99.7032 37.1442C100.092 37.1442 100.406 36.8294 100.406 36.441V31.1887H105.519V36.441C105.519 36.8294 105.834 37.1442 106.222 37.1442C106.611 37.1442 106.925 36.8294 106.925 36.441V29.593C106.925 28.4925 106.03 27.5973 104.93 27.5973V27.5973Z" fill="#666666"/>
<path d="M122.296 18.559C121.908 18.559 121.593 18.8738 121.593 19.2621V27.5973H117.174C116.074 27.5973 115.179 28.4926 115.179 29.593V36.441C115.179 36.8294 115.494 37.1442 115.882 37.1442C116.27 37.1442 116.585 36.8294 116.585 36.441V31.1876H121.593V36.441C121.593 36.8294 121.908 37.1442 122.296 37.1442C122.685 37.1442 122.999 36.8294 122.999 36.441V19.2621C122.999 18.8738 122.685 18.559 122.296 18.559V18.559Z" fill="#666666"/>
</g>
<defs>
<clipPath id="clip0_413_489">
<rect width="24" height="24" fill="white" transform="translate(99 15.8516)"/>
</clipPath>
</defs>
</svg>
