<svg width="62" height="12" viewBox="0 0 62 12" fill="none" xmlns="http://www.w3.org/2000/svg">
<path d="M-0.000195265 11.2V-4.95911e-05H6.81581V1.10395H1.3438V5.03995H5.9998V6.12795H1.3438V11.2H-0.000195265ZM11.6746 11.392C10.9279 11.392 10.2612 11.216 9.67455 10.864C9.08789 10.512 8.62389 10.0213 8.28255 9.39195C7.95189 8.76262 7.78655 8.02662 7.78655 7.18395C7.78655 6.33062 7.95189 5.59462 8.28255 4.97595C8.61322 4.34662 9.07189 3.85595 9.65855 3.50395C10.2559 3.15195 10.9386 2.97595 11.7066 2.97595C12.4959 2.97595 13.1679 3.15195 13.7226 3.50395C14.2772 3.85595 14.6986 4.31462 14.9866 4.87995C15.2852 5.44528 15.4346 6.06928 15.4346 6.75195C15.4346 6.85862 15.4346 6.97062 15.4346 7.08795C15.4346 7.20528 15.4292 7.33862 15.4186 7.48795H8.79455V6.44795H14.1066C14.0746 5.71195 13.8292 5.14128 13.3706 4.73595C12.9226 4.31995 12.3572 4.11195 11.6746 4.11195C11.2266 4.11195 10.8052 4.21862 10.4106 4.43195C10.0159 4.63462 9.69589 4.93328 9.45055 5.32795C9.21589 5.72262 9.09855 6.21862 9.09855 6.81595V7.26395C9.09855 7.92528 9.22122 8.47995 9.46655 8.92795C9.71189 9.36528 10.0266 9.69595 10.4106 9.91995C10.8052 10.144 11.2266 10.256 11.6746 10.256C12.2399 10.256 12.7039 10.1333 13.0666 9.88795C13.4399 9.63195 13.7119 9.28528 13.8826 8.84795H15.2106C15.0719 9.33862 14.8426 9.77595 14.5226 10.16C14.2026 10.5333 13.8026 10.832 13.3226 11.056C12.8532 11.28 12.3039 11.392 11.6746 11.392ZM19.8563 11.392C19.2056 11.392 18.6616 11.28 18.2243 11.056C17.787 10.8213 17.4616 10.5173 17.2483 10.144C17.035 9.75995 16.9283 9.34928 16.9283 8.91195C16.9283 8.36795 17.067 7.90928 17.3443 7.53595C17.6323 7.15195 18.0323 6.86395 18.5443 6.67195C19.067 6.46928 19.675 6.36795 20.3683 6.36795H22.5123C22.5123 5.86662 22.4323 5.45062 22.2723 5.11995C22.123 4.78928 21.899 4.53862 21.6003 4.36795C21.3016 4.19728 20.939 4.11195 20.5123 4.11195C20.0003 4.11195 19.5576 4.23995 19.1843 4.49595C18.811 4.75195 18.5816 5.13062 18.4963 5.63195H17.1203C17.1843 5.05595 17.3763 4.57595 17.6963 4.19195C18.027 3.79728 18.443 3.49862 18.9443 3.29595C19.4456 3.08262 19.9683 2.97595 20.5123 2.97595C21.259 2.97595 21.8776 3.11462 22.3683 3.39195C22.859 3.65862 23.227 4.03728 23.4723 4.52795C23.7283 5.00795 23.8563 5.57328 23.8563 6.22395V11.2H22.6563L22.5763 9.77595C22.4696 9.99995 22.331 10.2133 22.1603 10.416C22.0003 10.608 21.8083 10.7786 21.5843 10.928C21.371 11.0666 21.1203 11.1786 20.8323 11.264C20.5443 11.3493 20.219 11.392 19.8563 11.392ZM20.0643 10.256C20.4376 10.256 20.7736 10.1813 21.0723 10.032C21.3816 9.87195 21.643 9.65862 21.8563 9.39195C22.0696 9.12528 22.2296 8.82662 22.3363 8.49595C22.4536 8.15462 22.5123 7.80795 22.5123 7.45595V7.40795H20.4803C19.9683 7.40795 19.5523 7.47195 19.2323 7.59995C18.9123 7.71728 18.683 7.88795 18.5443 8.11195C18.4056 8.32528 18.3363 8.57062 18.3363 8.84795C18.3363 9.13595 18.4003 9.38662 18.5283 9.59995C18.667 9.80262 18.8643 9.96262 19.1203 10.08C19.3763 10.1973 19.691 10.256 20.0643 10.256ZM28.8687 11.2C28.3887 11.2 27.9727 11.1253 27.6207 10.976C27.2687 10.8266 26.9967 10.576 26.8047 10.224C26.6233 9.86128 26.5327 9.37595 26.5327 8.76795V4.30395H25.1407V3.16795H26.5327L26.7087 1.23195H27.8767V3.16795H30.2287V4.30395H27.8767V8.76795C27.8767 9.26928 27.978 9.61062 28.1807 9.79195C28.3833 9.96262 28.7407 10.048 29.2527 10.048H30.1167V11.2H28.8687ZM34.8787 11.392C34.26 11.392 33.716 11.2693 33.2467 11.024C32.788 10.7786 32.4307 10.4 32.1747 9.88795C31.9293 9.37595 31.8067 8.73062 31.8067 7.95195V3.16795H33.1507V7.80795C33.1507 8.61862 33.3267 9.22662 33.6787 9.63195C34.0307 10.0373 34.532 10.24 35.1827 10.24C35.6307 10.24 36.036 10.1333 36.3987 9.91995C36.7613 9.69595 37.044 9.37595 37.2467 8.95995C37.46 8.54395 37.5667 8.03728 37.5667 7.43995V3.16795H38.9107V11.2H37.6947L37.6147 9.79195C37.3587 10.2933 36.9907 10.688 36.5107 10.976C36.0307 11.2533 35.4867 11.392 34.8787 11.392ZM41.1226 11.2V3.16795H42.3386L42.4506 4.70395C42.6319 4.34128 42.8612 4.03195 43.1386 3.77595C43.4266 3.51995 43.7679 3.32262 44.1626 3.18395C44.5572 3.04528 45.0052 2.97595 45.5066 2.97595V4.38395H45.0426C44.7012 4.38395 44.3759 4.43195 44.0666 4.52795C43.7572 4.61328 43.4799 4.75728 43.2346 4.95995C42.9999 5.15195 42.8132 5.42395 42.6746 5.77595C42.5359 6.12795 42.4666 6.55995 42.4666 7.07195V11.2H41.1226ZM50.2683 11.392C49.5216 11.392 48.855 11.216 48.2683 10.864C47.6816 10.512 47.2176 10.0213 46.8763 9.39195C46.5456 8.76262 46.3803 8.02662 46.3803 7.18395C46.3803 6.33062 46.5456 5.59462 46.8763 4.97595C47.207 4.34662 47.6656 3.85595 48.2523 3.50395C48.8496 3.15195 49.5323 2.97595 50.3003 2.97595C51.0896 2.97595 51.7616 3.15195 52.3163 3.50395C52.871 3.85595 53.2923 4.31462 53.5803 4.87995C53.879 5.44528 54.0283 6.06928 54.0283 6.75195C54.0283 6.85862 54.0283 6.97062 54.0283 7.08795C54.0283 7.20528 54.023 7.33862 54.0123 7.48795H47.3883V6.44795H52.7003C52.6683 5.71195 52.423 5.14128 51.9643 4.73595C51.5163 4.31995 50.951 4.11195 50.2683 4.11195C49.8203 4.11195 49.399 4.21862 49.0043 4.43195C48.6096 4.63462 48.2896 4.93328 48.0443 5.32795C47.8096 5.72262 47.6923 6.21862 47.6923 6.81595V7.26395C47.6923 7.92528 47.815 8.47995 48.0603 8.92795C48.3056 9.36528 48.6203 9.69595 49.0043 9.91995C49.399 10.144 49.8203 10.256 50.2683 10.256C50.8336 10.256 51.2976 10.1333 51.6603 9.88795C52.0336 9.63195 52.3056 9.28528 52.4763 8.84795H53.8043C53.6656 9.33862 53.4363 9.77595 53.1163 10.16C52.7963 10.5333 52.3963 10.832 51.9163 11.056C51.447 11.28 50.8976 11.392 50.2683 11.392ZM58.8501 11.392C58.1994 11.392 57.6234 11.2853 57.1221 11.072C56.6207 10.848 56.2207 10.5333 55.9221 10.128C55.6341 9.72262 55.4527 9.24795 55.3781 8.70395H56.7541C56.8181 8.98128 56.9354 9.24262 57.1061 9.48795C57.2767 9.72262 57.5061 9.90928 57.7941 10.048C58.0927 10.1866 58.4501 10.256 58.8661 10.256C59.2501 10.256 59.5647 10.2026 59.8101 10.096C60.0554 9.97862 60.2367 9.82395 60.3541 9.63195C60.4714 9.43995 60.5301 9.23195 60.5301 9.00795C60.5301 8.68795 60.4501 8.44262 60.2901 8.27195C60.1407 8.10128 59.9167 7.96795 59.6181 7.87195C59.3194 7.76528 58.9621 7.67462 58.5461 7.59995C58.1941 7.53595 57.8474 7.45062 57.5061 7.34395C57.1754 7.23728 56.8767 7.09862 56.6101 6.92795C56.3434 6.75728 56.1301 6.54395 55.9701 6.28795C55.8101 6.02128 55.7301 5.70662 55.7301 5.34395C55.7301 4.88528 55.8474 4.47995 56.0821 4.12795C56.3274 3.76528 56.6634 3.48262 57.0901 3.27995C57.5274 3.07728 58.0447 2.97595 58.6421 2.97595C59.4954 2.97595 60.1887 3.18395 60.7221 3.59995C61.2661 4.01595 61.5807 4.61862 61.6661 5.40795H60.3381C60.2954 5.00262 60.1247 4.68795 59.8261 4.46395C59.5274 4.22928 59.1274 4.11195 58.6261 4.11195C58.1247 4.11195 57.7407 4.21328 57.4741 4.41595C57.2181 4.61862 57.0901 4.88528 57.0901 5.21595C57.0901 5.42928 57.1594 5.61595 57.2981 5.77595C57.4474 5.93595 57.6661 6.07462 57.9541 6.19195C58.2421 6.29862 58.5887 6.39462 58.9941 6.47995C59.5167 6.57595 59.9967 6.70395 60.4341 6.86395C60.8714 7.02395 61.2234 7.25862 61.4901 7.56795C61.7674 7.87728 61.9061 8.31995 61.9061 8.89595C61.9167 9.39728 61.7941 9.83462 61.5381 10.208C61.2927 10.5813 60.9407 10.8746 60.4821 11.088C60.0234 11.2906 59.4794 11.392 58.8501 11.392Z" fill="#161616"/>
</svg>
