<svg width="42" height="12" viewBox="0 0 42 12" fill="none" xmlns="http://www.w3.org/2000/svg">
<path d="M7.1518 11.2V-4.95911e-05H8.4958V11.2H7.1518ZM-0.000195265 11.2V-4.95911e-05H1.3438V11.2H-0.000195265ZM1.0878 6.04795V4.94395H7.48781V6.04795H1.0878ZM14.3948 11.392C13.6481 11.392 12.9761 11.2213 12.3788 10.88C11.7815 10.528 11.3068 10.0373 10.9548 9.40795C10.6135 8.77862 10.4428 8.03728 10.4428 7.18395C10.4428 6.33062 10.6188 5.58928 10.9708 4.95995C11.3228 4.33062 11.7975 3.84528 12.3948 3.50395C13.0028 3.15195 13.6801 2.97595 14.4268 2.97595C15.1841 2.97595 15.8615 3.15195 16.4588 3.50395C17.0561 3.84528 17.5255 4.33062 17.8668 4.95995C18.2081 5.58928 18.3788 6.33062 18.3788 7.18395C18.3788 8.03728 18.2028 8.77862 17.8508 9.40795C17.5095 10.0373 17.0348 10.528 16.4268 10.88C15.8295 11.2213 15.1521 11.392 14.3948 11.392ZM14.3948 10.24C14.8641 10.24 15.2961 10.128 15.6908 9.90395C16.0855 9.66928 16.4001 9.32795 16.6348 8.87995C16.8801 8.42128 17.0028 7.85595 17.0028 7.18395C17.0028 6.50128 16.8855 5.93595 16.6508 5.48795C16.4161 5.03995 16.1015 4.70395 15.7068 4.47995C15.3121 4.24528 14.8855 4.12795 14.4268 4.12795C13.9788 4.12795 13.5521 4.24528 13.1468 4.47995C12.7521 4.70395 12.4321 5.03995 12.1868 5.48795C11.9415 5.93595 11.8188 6.50128 11.8188 7.18395C11.8188 7.85595 11.9415 8.42128 12.1868 8.87995C12.4321 9.32795 12.7468 9.66928 13.1308 9.90395C13.5255 10.128 13.9468 10.24 14.3948 10.24ZM20.2632 11.2V3.16795H21.4792L21.5752 4.31995C21.8312 3.89328 22.1725 3.56262 22.5992 3.32795C23.0258 3.09328 23.5005 2.97595 24.0232 2.97595C24.4392 2.97595 24.8178 3.03462 25.1592 3.15195C25.5005 3.25862 25.7992 3.42928 26.0552 3.66395C26.3112 3.88795 26.5192 4.17595 26.6792 4.52795C26.9565 4.03728 27.3352 3.65862 27.8152 3.39195C28.3058 3.11462 28.8285 2.97595 29.3832 2.97595C30.0018 2.97595 30.5405 3.10395 30.9992 3.35995C31.4685 3.60528 31.8312 3.98395 32.0872 4.49595C32.3432 4.99728 32.4712 5.63728 32.4712 6.41595V11.2H31.1432V6.55995C31.1432 5.74928 30.9778 5.14128 30.6472 4.73595C30.3165 4.33062 29.8472 4.12795 29.2392 4.12795C28.8232 4.12795 28.4445 4.23995 28.1032 4.46395C27.7725 4.67728 27.5112 4.99195 27.3192 5.40795C27.1378 5.82395 27.0472 6.33595 27.0472 6.94395V11.2H25.7032V6.55995C25.7032 5.74928 25.5378 5.14128 25.2072 4.73595C24.8765 4.33062 24.4072 4.12795 23.7992 4.12795C23.3938 4.12795 23.0205 4.23995 22.6792 4.46395C22.3485 4.67728 22.0872 4.99195 21.8952 5.40795C21.7032 5.82395 21.6072 6.33595 21.6072 6.94395V11.2H20.2632ZM38.0808 11.392C37.3341 11.392 36.6675 11.216 36.0808 10.864C35.4941 10.512 35.0301 10.0213 34.6888 9.39195C34.3581 8.76262 34.1928 8.02662 34.1928 7.18395C34.1928 6.33062 34.3581 5.59462 34.6888 4.97595C35.0195 4.34662 35.4781 3.85595 36.0648 3.50395C36.6621 3.15195 37.3448 2.97595 38.1128 2.97595C38.9021 2.97595 39.5741 3.15195 40.1288 3.50395C40.6835 3.85595 41.1048 4.31462 41.3928 4.87995C41.6915 5.44528 41.8408 6.06928 41.8408 6.75195C41.8408 6.85862 41.8408 6.97062 41.8408 7.08795C41.8408 7.20528 41.8355 7.33862 41.8248 7.48795H35.2008V6.44795H40.5128C40.4808 5.71195 40.2355 5.14128 39.7768 4.73595C39.3288 4.31995 38.7635 4.11195 38.0808 4.11195C37.6328 4.11195 37.2115 4.21862 36.8168 4.43195C36.4221 4.63462 36.1021 4.93328 35.8568 5.32795C35.6221 5.72262 35.5048 6.21862 35.5048 6.81595V7.26395C35.5048 7.92528 35.6275 8.47995 35.8728 8.92795C36.1181 9.36528 36.4328 9.69595 36.8168 9.91995C37.2115 10.144 37.6328 10.256 38.0808 10.256C38.6461 10.256 39.1101 10.1333 39.4728 9.88795C39.8461 9.63195 40.1181 9.28528 40.2888 8.84795H41.6168C41.4781 9.33862 41.2488 9.77595 40.9288 10.16C40.6088 10.5333 40.2088 10.832 39.7288 11.056C39.2595 11.28 38.7101 11.392 38.0808 11.392Z" fill="#161616"/>
</svg>
