<svg width="222" height="90" viewBox="0 0 222 90" fill="none" xmlns="http://www.w3.org/2000/svg">
<rect x="0.75" y="0.75" width="220.5" height="88.5" stroke="#D9DCE5" stroke-width="1.5"/>
<path d="M66.668 69.5V58.3H68.268V68.236H73.388V69.5H66.668ZM75.2781 69.5V61.468H76.8781V69.5H75.2781ZM76.0781 59.932C75.7795 59.932 75.5288 59.836 75.3261 59.644C75.1341 59.452 75.0381 59.2067 75.0381 58.908C75.0381 58.62 75.1341 58.3853 75.3261 58.204C75.5288 58.012 75.7795 57.916 76.0781 57.916C76.3875 57.916 76.6435 58.012 76.8461 58.204C77.0488 58.3853 77.1501 58.62 77.1501 58.908C77.1501 59.2067 77.0488 59.452 76.8461 59.644C76.6435 59.836 76.3875 59.932 76.0781 59.932ZM81.4381 69.5L78.4301 61.468H80.1101L82.3821 67.964L84.6861 61.468H86.3341L83.3261 69.5H81.4381ZM87.8875 69.5V61.468H89.4875V69.5H87.8875ZM88.6875 59.932C88.3888 59.932 88.1382 59.836 87.9355 59.644C87.7435 59.452 87.6475 59.2067 87.6475 58.908C87.6475 58.62 87.7435 58.3853 87.9355 58.204C88.1382 58.012 88.3888 57.916 88.6875 57.916C88.9968 57.916 89.2528 58.012 89.4555 58.204C89.6582 58.3853 89.7595 58.62 89.7595 58.908C89.7595 59.2067 89.6582 59.452 89.4555 59.644C89.2528 59.836 88.9968 59.932 88.6875 59.932ZM91.7755 69.5V61.468H93.2155L93.3115 62.844C93.5675 62.364 93.9302 61.9853 94.3995 61.708C94.8688 61.42 95.4128 61.276 96.0315 61.276C96.6608 61.276 97.2048 61.404 97.6635 61.66C98.1222 61.916 98.4795 62.3053 98.7355 62.828C98.9915 63.34 99.1195 63.9853 99.1195 64.764V69.5H97.5195V64.924C97.5195 64.1773 97.3542 63.612 97.0235 63.228C96.6928 62.8333 96.2182 62.636 95.5995 62.636C95.1728 62.636 94.7888 62.7373 94.4475 62.94C94.1168 63.1427 93.8555 63.436 93.6635 63.82C93.4715 64.204 93.3755 64.6787 93.3755 65.244V69.5H91.7755ZM104.446 73.212C103.71 73.212 103.059 73.116 102.494 72.924C101.929 72.7427 101.491 72.46 101.182 72.076C100.873 71.692 100.718 71.2227 100.718 70.668C100.718 70.38 100.782 70.0867 100.91 69.788C101.038 69.5 101.246 69.2227 101.534 68.956C101.822 68.6893 102.211 68.4547 102.702 68.252L103.582 68.956C103.049 69.1693 102.686 69.4147 102.494 69.692C102.313 69.9693 102.222 70.2413 102.222 70.508C102.222 70.828 102.318 71.0947 102.51 71.308C102.702 71.5213 102.963 71.6813 103.294 71.788C103.635 71.8947 104.014 71.948 104.43 71.948C104.857 71.948 105.219 71.8893 105.518 71.772C105.827 71.6547 106.067 71.4893 106.238 71.276C106.409 71.0627 106.494 70.812 106.494 70.524C106.494 70.1827 106.366 69.8947 106.11 69.66C105.854 69.436 105.369 69.3027 104.654 69.26C104.046 69.2173 103.529 69.1587 103.102 69.084C102.686 69.0093 102.329 68.9187 102.03 68.812C101.742 68.7053 101.497 68.588 101.294 68.46C101.102 68.332 100.937 68.1987 100.798 68.06V67.692L102.398 66.044L103.678 66.492L101.95 68.108L102.286 67.388C102.403 67.4733 102.515 67.548 102.622 67.612C102.729 67.676 102.873 67.7347 103.054 67.788C103.235 67.8413 103.481 67.8893 103.79 67.932C104.099 67.9747 104.505 68.0173 105.006 68.06C105.721 68.1133 106.297 68.2413 106.734 68.444C107.182 68.6467 107.507 68.9187 107.71 69.26C107.913 69.6013 108.014 70.0067 108.014 70.476C108.014 70.9347 107.886 71.372 107.63 71.788C107.385 72.204 106.995 72.5453 106.462 72.812C105.939 73.0787 105.267 73.212 104.446 73.212ZM104.43 67.02C103.758 67.02 103.182 66.892 102.702 66.636C102.233 66.38 101.87 66.0387 101.614 65.612C101.369 65.1747 101.246 64.6893 101.246 64.156C101.246 63.6227 101.369 63.1427 101.614 62.716C101.87 62.2787 102.233 61.932 102.702 61.676C103.182 61.4093 103.758 61.276 104.43 61.276C105.113 61.276 105.689 61.4093 106.158 61.676C106.638 61.932 107.001 62.2787 107.246 62.716C107.491 63.1427 107.614 63.6227 107.614 64.156C107.614 64.6893 107.491 65.1747 107.246 65.612C107.001 66.0387 106.638 66.38 106.158 66.636C105.689 66.892 105.113 67.02 104.43 67.02ZM104.43 65.756C104.953 65.756 105.369 65.6227 105.678 65.356C105.987 65.0787 106.142 64.6787 106.142 64.156C106.142 63.644 105.987 63.2547 105.678 62.988C105.369 62.7107 104.953 62.572 104.43 62.572C103.918 62.572 103.502 62.7107 103.182 62.988C102.862 63.2547 102.702 63.644 102.702 64.156C102.702 64.6787 102.857 65.0787 103.166 65.356C103.486 65.6227 103.907 65.756 104.43 65.756ZM105.742 62.732L105.358 61.468H108.67V62.556L105.742 62.732ZM114.449 69.5V58.3H118.241C119.127 58.3 119.852 58.4493 120.417 58.748C120.983 59.0467 121.399 59.4467 121.665 59.948C121.943 60.4387 122.081 60.9987 122.081 61.628C122.081 62.2253 121.943 62.78 121.665 63.292C121.388 63.7933 120.961 64.1987 120.385 64.508C119.82 64.8067 119.089 64.956 118.193 64.956H116.049V69.5H114.449ZM120.321 69.5L117.921 64.524H119.681L122.193 69.5H120.321ZM116.049 63.74H118.129C118.919 63.74 119.5 63.548 119.873 63.164C120.247 62.7693 120.433 62.268 120.433 61.66C120.433 61.0413 120.252 60.5507 119.889 60.188C119.527 59.8253 118.935 59.644 118.113 59.644H116.049V63.74ZM127.252 69.692C126.495 69.692 125.812 69.5213 125.204 69.18C124.607 68.828 124.132 68.3373 123.78 67.708C123.439 67.068 123.268 66.3267 123.268 65.484C123.268 64.6413 123.444 63.9053 123.796 63.276C124.148 62.636 124.628 62.1453 125.236 61.804C125.844 61.452 126.522 61.276 127.268 61.276C128.036 61.276 128.719 61.452 129.316 61.804C129.924 62.1453 130.399 62.6307 130.74 63.26C131.092 63.8893 131.268 64.6307 131.268 65.484C131.268 66.3267 131.092 67.068 130.74 67.708C130.388 68.3373 129.908 68.828 129.3 69.18C128.703 69.5213 128.02 69.692 127.252 69.692ZM127.252 68.316C127.69 68.316 128.084 68.2147 128.436 68.012C128.799 67.7987 129.087 67.4787 129.3 67.052C129.524 66.6253 129.636 66.1027 129.636 65.484C129.636 64.8547 129.53 64.332 129.316 63.916C129.103 63.4893 128.815 63.1747 128.452 62.972C128.1 62.7587 127.711 62.652 127.284 62.652C126.868 62.652 126.474 62.7587 126.1 62.972C125.738 63.1747 125.444 63.4893 125.22 63.916C125.007 64.332 124.9 64.8547 124.9 65.484C124.9 66.1027 125.007 66.6253 125.22 67.052C125.444 67.4787 125.732 67.7987 126.084 68.012C126.447 68.2147 126.836 68.316 127.252 68.316ZM136.815 69.692C136.058 69.692 135.375 69.5213 134.767 69.18C134.17 68.828 133.695 68.3373 133.343 67.708C133.002 67.068 132.831 66.3267 132.831 65.484C132.831 64.6413 133.007 63.9053 133.359 63.276C133.711 62.636 134.191 62.1453 134.799 61.804C135.407 61.452 136.084 61.276 136.831 61.276C137.599 61.276 138.282 61.452 138.879 61.804C139.487 62.1453 139.962 62.6307 140.303 63.26C140.655 63.8893 140.831 64.6307 140.831 65.484C140.831 66.3267 140.655 67.068 140.303 67.708C139.951 68.3373 139.471 68.828 138.863 69.18C138.266 69.5213 137.583 69.692 136.815 69.692ZM136.815 68.316C137.252 68.316 137.647 68.2147 137.999 68.012C138.362 67.7987 138.65 67.4787 138.863 67.052C139.087 66.6253 139.199 66.1027 139.199 65.484C139.199 64.8547 139.092 64.332 138.879 63.916C138.666 63.4893 138.378 63.1747 138.015 62.972C137.663 62.7587 137.274 62.652 136.847 62.652C136.431 62.652 136.036 62.7587 135.663 62.972C135.3 63.1747 135.007 63.4893 134.783 63.916C134.57 64.332 134.463 64.8547 134.463 65.484C134.463 66.1027 134.57 66.6253 134.783 67.052C135.007 67.4787 135.295 67.7987 135.647 68.012C136.01 68.2147 136.399 68.316 136.815 68.316ZM142.697 69.5V61.468H144.137L144.249 62.588C144.505 62.1827 144.847 61.8627 145.273 61.628C145.7 61.3933 146.18 61.276 146.713 61.276C147.119 61.276 147.487 61.3293 147.817 61.436C148.159 61.5427 148.457 61.708 148.713 61.932C148.969 62.156 149.177 62.4387 149.337 62.78C149.615 62.3 149.993 61.932 150.473 61.676C150.964 61.4093 151.487 61.276 152.041 61.276C152.692 61.276 153.252 61.404 153.721 61.66C154.191 61.916 154.548 62.3053 154.793 62.828C155.039 63.3507 155.161 64.0013 155.161 64.78V69.5H153.577V64.94C153.577 64.1827 153.423 63.612 153.113 63.228C152.815 62.8333 152.372 62.636 151.785 62.636C151.391 62.636 151.039 62.7373 150.729 62.94C150.42 63.1427 150.175 63.4413 149.993 63.836C149.823 64.22 149.737 64.6893 149.737 65.244V69.5H148.137V64.94C148.137 64.1827 147.983 63.612 147.673 63.228C147.364 62.8333 146.921 62.636 146.345 62.636C145.961 62.636 145.615 62.7373 145.305 62.94C144.996 63.1427 144.751 63.4413 144.569 63.836C144.388 64.22 144.297 64.6893 144.297 65.244V69.5H142.697Z" fill="#808080"/>
<g clip-path="url(#clip0_413_465)">
<path d="M103.453 26.7969H109.594C110.134 26.7969 110.627 27.001 111 27.3357C111.373 27.0009 111.866 26.7969 112.406 26.7969H118.547V19.2563C118.547 18.8698 118.238 18.5482 117.851 18.5469C117.845 18.5469 118.091 18.5469 104.156 18.5469C103.756 18.5469 103.453 18.8749 103.453 19.2563V26.7969Z" fill="#666666"/>
<path d="M111.703 28.9062V30.5469H118.547C118.547 29.5083 118.547 29.295 118.547 28.2031H112.406C112.019 28.2031 111.703 28.5185 111.703 28.9062Z" fill="#666666"/>
<path d="M120.727 23.423C120.294 23.4365 119.953 23.8 119.953 24.2336C119.953 24.3449 119.953 31.6494 119.953 31.25C119.953 31.6383 119.638 31.9532 119.25 31.9532C118.688 31.9532 102.216 31.9532 102.75 31.9532C102.362 31.9532 102.047 31.6383 102.047 31.25C102.047 30.9906 102.047 24.166 102.047 24.2336C102.047 23.8 101.706 23.4365 101.273 23.423C100.024 23.3841 99 24.3834 99 25.625V32.8438C99 34.0088 99.9444 34.9532 101.109 34.9532H102.047V35.7302C102.047 36.1088 102.338 36.4345 102.716 36.4524C103.12 36.4714 103.453 36.1496 103.453 35.75V34.9532H118.547V35.7302C118.547 36.1088 118.838 36.4345 119.216 36.4524C119.62 36.4714 119.953 36.1496 119.953 35.75V34.9532H120.891C122.056 34.9532 123 34.0088 123 32.8438V25.6646C123 24.3666 121.968 23.3843 120.727 23.423Z" fill="#666666"/>
<path d="M110.297 28.9062C110.297 28.5185 109.981 28.2031 109.594 28.2031H103.453V30.5469H110.297V28.9062Z" fill="#666666"/>
</g>
<defs>
<clipPath id="clip0_413_465">
<rect width="24" height="24" fill="white" transform="translate(99 15.5)"/>
</clipPath>
</defs>
</svg>
