<svg width="144" height="23" viewBox="0 0 144 23" fill="none" xmlns="http://www.w3.org/2000/svg">
<path d="M-0.000187397 17.808V1.00798H7.63181C9.45581 1.00798 11.0638 1.35998 12.4558 2.06398C13.8478 2.75198 14.9358 3.71998 15.7198 4.96798C16.5038 6.21598 16.8958 7.69598 16.8958 9.40798C16.8958 11.104 16.5038 12.584 15.7198 13.848C14.9358 15.096 13.8478 16.072 12.4558 16.776C11.0638 17.464 9.45581 17.808 7.63181 17.808H-0.000187397ZM3.88781 14.616H7.43981C8.55981 14.616 9.52781 14.408 10.3438 13.992C11.1758 13.56 11.8158 12.952 12.2638 12.168C12.7278 11.384 12.9598 10.464 12.9598 9.40798C12.9598 8.33598 12.7278 7.41598 12.2638 6.64798C11.8158 5.86398 11.1758 5.26398 10.3438 4.84798C9.52781 4.41598 8.55981 4.19998 7.43981 4.19998H3.88781V14.616ZM25.0119 18C23.9399 18 22.9799 17.792 22.1319 17.376C21.2999 16.96 20.6519 16.328 20.1879 15.48C19.7239 14.616 19.4919 13.52 19.4919 12.192V4.89598H23.2359V11.64C23.2359 12.712 23.4599 13.504 23.9079 14.016C24.3719 14.512 25.0199 14.76 25.8519 14.76C26.4279 14.76 26.9399 14.64 27.3879 14.4C27.8359 14.144 28.1879 13.76 28.4439 13.248C28.6999 12.72 28.8279 12.064 28.8279 11.28V4.89598H32.5719V17.808H29.0199V14.256L29.6679 15.288C29.2359 16.184 28.5959 16.864 27.7479 17.328C26.9159 17.776 26.0039 18 25.0119 18ZM41.5845 18C40.3685 18 39.2725 17.728 38.2965 17.184C37.3205 16.624 36.5445 15.848 35.9685 14.856C35.4085 13.864 35.1285 12.696 35.1285 11.352C35.1285 9.99198 35.4085 8.81598 35.9685 7.82398C36.5445 6.83198 37.3205 6.06398 38.2965 5.51998C39.2725 4.97598 40.3685 4.70398 41.5845 4.70398C42.6725 4.70398 43.6245 4.94398 44.4405 5.42398C45.2565 5.90398 45.8885 6.63198 46.3365 7.60798C46.7845 8.58398 47.0085 9.83198 47.0085 11.352C47.0085 12.856 46.7925 14.104 46.3605 15.096C45.9285 16.072 45.3045 16.8 44.4885 17.28C43.6885 17.76 42.7205 18 41.5845 18ZM42.2325 14.928C42.8405 14.928 43.3925 14.784 43.8885 14.496C44.3845 14.208 44.7765 13.8 45.0645 13.272C45.3685 12.728 45.5205 12.088 45.5205 11.352C45.5205 10.6 45.3685 9.95998 45.0645 9.43198C44.7765 8.90398 44.3845 8.49598 43.8885 8.20798C43.3925 7.91998 42.8405 7.77598 42.2325 7.77598C41.6085 7.77598 41.0485 7.91998 40.5525 8.20798C40.0565 8.49598 39.6565 8.90398 39.3525 9.43198C39.0645 9.95998 38.9205 10.6 38.9205 11.352C38.9205 12.088 39.0645 12.728 39.3525 13.272C39.6565 13.8 40.0565 14.208 40.5525 14.496C41.0485 14.784 41.6085 14.928 42.2325 14.928ZM45.6165 17.808V15.168L45.6885 11.328L45.4485 7.51198V-1.7643e-05H49.1925V17.808H45.6165ZM59.0657 18C57.5937 18 56.2977 17.712 55.1777 17.136C54.0737 16.56 53.2177 15.776 52.6097 14.784C52.0017 13.776 51.6977 12.632 51.6977 11.352C51.6977 10.056 51.9937 8.91198 52.5857 7.91998C53.1937 6.91198 54.0177 6.12798 55.0577 5.56798C56.0977 4.99198 57.2737 4.70398 58.5857 4.70398C59.8497 4.70398 60.9857 4.97598 61.9937 5.51998C63.0177 6.04798 63.8257 6.81598 64.4177 7.82398C65.0097 8.81598 65.3057 10.008 65.3057 11.4C65.3057 11.544 65.2977 11.712 65.2817 11.904C65.2657 12.08 65.2497 12.248 65.2337 12.408H54.7457V10.224H63.2657L61.8257 10.872C61.8257 10.2 61.6897 9.61598 61.4177 9.11998C61.1457 8.62398 60.7697 8.23998 60.2897 7.96798C59.8097 7.67998 59.2497 7.53598 58.6097 7.53598C57.9697 7.53598 57.4017 7.67998 56.9057 7.96798C56.4257 8.23998 56.0497 8.63198 55.7777 9.14398C55.5057 9.63998 55.3697 10.232 55.3697 10.92V11.496C55.3697 12.2 55.5217 12.824 55.8257 13.368C56.1457 13.896 56.5857 14.304 57.1457 14.592C57.7217 14.864 58.3937 15 59.1617 15C59.8497 15 60.4497 14.896 60.9617 14.688C61.4897 14.48 61.9697 14.168 62.4017 13.752L64.3937 15.912C63.8017 16.584 63.0577 17.104 62.1617 17.472C61.2657 17.824 60.2337 18 59.0657 18ZM73.5823 18.096C72.2383 18.096 70.9503 17.92 69.7183 17.568C68.4863 17.2 67.4943 16.728 66.7423 16.152L68.0623 13.224C68.7823 13.736 69.6303 14.16 70.6063 14.496C71.5983 14.816 72.5983 14.976 73.6063 14.976C74.3743 14.976 74.9903 14.904 75.4543 14.76C75.9343 14.6 76.2863 14.384 76.5103 14.112C76.7343 13.84 76.8463 13.528 76.8463 13.176C76.8463 12.728 76.6703 12.376 76.3183 12.12C75.9663 11.848 75.5023 11.632 74.9263 11.472C74.3503 11.296 73.7103 11.136 73.0063 10.992C72.3183 10.832 71.6223 10.64 70.9183 10.416C70.2303 10.192 69.5983 9.90398 69.0223 9.55198C68.4463 9.19998 67.9743 8.73598 67.6063 8.15998C67.2543 7.58398 67.0783 6.84798 67.0783 5.95198C67.0783 4.99198 67.3343 4.11998 67.8463 3.33598C68.3743 2.53598 69.1583 1.90398 70.1983 1.43998C71.2543 0.959983 72.5743 0.719983 74.1583 0.719983C75.2143 0.719983 76.2543 0.847983 77.2783 1.10398C78.3023 1.34398 79.2063 1.71198 79.9903 2.20798L78.7903 5.15998C78.0063 4.71198 77.2223 4.38398 76.4383 4.17598C75.6543 3.95198 74.8863 3.83998 74.1343 3.83998C73.3823 3.83998 72.7663 3.92798 72.2863 4.10398C71.8063 4.27998 71.4623 4.51198 71.2543 4.79998C71.0463 5.07198 70.9423 5.39198 70.9423 5.75998C70.9423 6.19198 71.1183 6.54398 71.4703 6.81598C71.8223 7.07198 72.2863 7.27998 72.8623 7.43998C73.4383 7.59998 74.0703 7.75998 74.7583 7.91998C75.4623 8.07998 76.1583 8.26398 76.8463 8.47198C77.5503 8.67998 78.1903 8.95998 78.7663 9.31198C79.3423 9.66398 79.8063 10.128 80.1583 10.704C80.5263 11.28 80.7103 12.008 80.7103 12.888C80.7103 13.832 80.4463 14.696 79.9183 15.48C79.3903 16.264 78.5983 16.896 77.5423 17.376C76.5023 17.856 75.1823 18.096 73.5823 18.096ZM90.951 4.70398C91.975 4.70398 92.887 4.91198 93.687 5.32798C94.503 5.72798 95.143 6.35198 95.607 7.19998C96.071 8.03198 96.303 9.10398 96.303 10.416V17.808H92.559V10.992C92.559 9.95198 92.327 9.18398 91.863 8.68798C91.415 8.19198 90.775 7.94398 89.943 7.94398C89.351 7.94398 88.815 8.07198 88.335 8.32798C87.871 8.56798 87.503 8.94398 87.231 9.45598C86.975 9.96798 86.847 10.624 86.847 11.424V17.808H83.103V-1.7643e-05H86.847V8.47198L86.007 7.39198C86.471 6.52798 87.135 5.86398 87.999 5.39998C88.863 4.93598 89.847 4.70398 90.951 4.70398ZM107.617 17.808V15.288L107.377 14.736V10.224C107.377 9.42398 107.129 8.79998 106.633 8.35198C106.153 7.90398 105.409 7.67998 104.401 7.67998C103.713 7.67998 103.033 7.79198 102.361 8.01598C101.705 8.22398 101.145 8.51198 100.681 8.87998L99.3368 6.26398C100.041 5.76798 100.889 5.38398 101.881 5.11198C102.873 4.83998 103.881 4.70398 104.905 4.70398C106.873 4.70398 108.401 5.16798 109.489 6.09598C110.577 7.02398 111.121 8.47198 111.121 10.44V17.808H107.617ZM103.681 18C102.673 18 101.809 17.832 101.089 17.496C100.369 17.144 99.8168 16.672 99.4328 16.08C99.0488 15.488 98.8568 14.824 98.8568 14.088C98.8568 13.32 99.0408 12.648 99.4088 12.072C99.7928 11.496 100.393 11.048 101.209 10.728C102.025 10.392 103.089 10.224 104.401 10.224H107.833V12.408H104.809C103.929 12.408 103.321 12.552 102.985 12.84C102.665 13.128 102.505 13.488 102.505 13.92C102.505 14.4 102.689 14.784 103.057 15.072C103.441 15.344 103.961 15.48 104.617 15.48C105.241 15.48 105.801 15.336 106.297 15.048C106.793 14.744 107.153 14.304 107.377 13.728L107.953 15.456C107.681 16.288 107.185 16.92 106.465 17.352C105.745 17.784 104.817 18 103.681 18ZM122.141 18C121.053 18 120.101 17.76 119.285 17.28C118.469 16.8 117.829 16.072 117.365 15.096C116.917 14.104 116.693 12.856 116.693 11.352C116.693 9.83198 116.909 8.58398 117.341 7.60798C117.773 6.63198 118.397 5.90398 119.213 5.42398C120.029 4.94398 121.005 4.70398 122.141 4.70398C123.357 4.70398 124.445 4.98398 125.405 5.54398C126.381 6.08798 127.149 6.85598 127.709 7.84798C128.285 8.83998 128.573 10.008 128.573 11.352C128.573 12.712 128.285 13.888 127.709 14.88C127.149 15.872 126.381 16.64 125.405 17.184C124.445 17.728 123.357 18 122.141 18ZM114.509 22.464V4.89598H118.085V7.53598L118.013 11.376L118.253 15.192V22.464H114.509ZM121.493 14.928C122.117 14.928 122.669 14.784 123.149 14.496C123.645 14.208 124.037 13.8 124.325 13.272C124.629 12.728 124.781 12.088 124.781 11.352C124.781 10.6 124.629 9.95998 124.325 9.43198C124.037 8.90398 123.645 8.49598 123.149 8.20798C122.669 7.91998 122.117 7.77598 121.493 7.77598C120.869 7.77598 120.309 7.91998 119.813 8.20798C119.317 8.49598 118.925 8.90398 118.637 9.43198C118.349 9.95998 118.205 10.6 118.205 11.352C118.205 12.088 118.349 12.728 118.637 13.272C118.925 13.8 119.317 14.208 119.813 14.496C120.309 14.784 120.869 14.928 121.493 14.928ZM137.488 18C136.016 18 134.72 17.712 133.6 17.136C132.496 16.56 131.64 15.776 131.032 14.784C130.424 13.776 130.12 12.632 130.12 11.352C130.12 10.056 130.416 8.91198 131.008 7.91998C131.616 6.91198 132.44 6.12798 133.48 5.56798C134.52 4.99198 135.696 4.70398 137.008 4.70398C138.272 4.70398 139.408 4.97598 140.416 5.51998C141.44 6.04798 142.248 6.81598 142.84 7.82398C143.432 8.81598 143.728 10.008 143.728 11.4C143.728 11.544 143.72 11.712 143.704 11.904C143.688 12.08 143.672 12.248 143.656 12.408H133.168V10.224H141.688L140.248 10.872C140.248 10.2 140.112 9.61598 139.84 9.11998C139.568 8.62398 139.192 8.23998 138.712 7.96798C138.232 7.67998 137.672 7.53598 137.032 7.53598C136.392 7.53598 135.824 7.67998 135.328 7.96798C134.848 8.23998 134.472 8.63198 134.2 9.14398C133.928 9.63998 133.792 10.232 133.792 10.92V11.496C133.792 12.2 133.944 12.824 134.248 13.368C134.568 13.896 135.008 14.304 135.568 14.592C136.144 14.864 136.816 15 137.584 15C138.272 15 138.872 14.896 139.384 14.688C139.912 14.48 140.392 14.168 140.824 13.752L142.816 15.912C142.224 16.584 141.48 17.104 140.584 17.472C139.688 17.824 138.656 18 137.488 18Z" fill="#244D4D"/>
</svg>
