<svg width="40" height="40" viewBox="0 0 40 40" fill="none" xmlns="http://www.w3.org/2000/svg">
<circle cx="20" cy="20" r="20" fill="#F4F6F6"/>
<g clip-path="url(#clip0_353_132)">
<path d="M15.5546 20.6243L22.6748 27.7444C22.8395 27.9092 23.0593 28 23.2937 28C23.5281 28 23.7479 27.9092 23.9126 27.7444L24.437 27.2202C24.7782 26.8786 24.7782 26.3234 24.437 25.9823L18.458 20.0033L24.4436 14.0177C24.6083 13.8529 24.6992 13.6332 24.6992 13.3989C24.6992 13.1643 24.6083 12.9446 24.4436 12.7797L23.9193 12.2556C23.7544 12.0908 23.5347 12 23.3003 12C23.0659 12 22.8461 12.0908 22.6814 12.2556L15.5546 19.3822C15.3895 19.5475 15.2988 19.7683 15.2994 20.0029C15.2988 20.2385 15.3895 20.4591 15.5546 20.6243Z" fill="#D1CECE"/>
</g>
<defs>
<clipPath id="clip0_353_132">
<rect width="16" height="16" fill="white" transform="matrix(-1 0 0 -1 28 28)"/>
</clipPath>
</defs>
</svg>
